<?xml version="1.0" encoding="iso-8859-1"?>
<!-- Uploaded to: SVG Repo, www.svgrepo.com, Generator: SVG Repo Mixer Tools -->
<svg fill="#000000" height="800px" width="800px" version="1.1" id="Layer_1" xmlns="http://www.w3.org/2000/svg" xmlns:xlink="http://www.w3.org/1999/xlink" 
	 viewBox="0 0 512.005 512.005" xml:space="preserve">
<g>
	<g>
		<path d="M490.672,214.853c-11.797,0-21.333,9.557-21.333,21.333v64h-67.925c-8.832-24.768-32.299-42.667-60.075-42.667
			c-9.856,0-19.072,2.432-27.435,6.421l-14.464-14.485l38.699-38.699c3.989-4.011,6.251-9.429,6.251-15.083
			c0-5.675-2.261-11.093-6.251-15.083L247.6,90.075c-8.32-8.341-21.824-8.341-30.165,0L36.421,271.088
			c-3.989,4.011-6.251,9.429-6.251,15.083s2.261,11.093,6.251,15.083L6.256,331.419c-8.341,8.341-8.341,21.845,0,30.165
			l60.331,60.352c4.16,4.16,9.621,6.251,15.083,6.251c5.461,0,10.923-2.091,15.083-6.251l30.187-30.165
			c4.181,4.16,9.621,6.251,15.083,6.251c5.461,0,10.923-2.091,15.083-6.251l112.171-112.149l14.464,14.485
			c-3.989,8.341-6.4,17.557-6.4,27.413c0,35.285,28.715,64,64,64c27.776,0,51.243-17.899,60.075-42.667h67.925v64
			c0,11.776,9.536,21.333,21.333,21.333c11.797,0,21.333-9.557,21.333-21.333V236.187
			C512.005,224.411,502.469,214.853,490.672,214.853z"/>
	</g>
</g>
</svg>