<?xml version="1.0" encoding="iso-8859-1"?>
<!-- Uploaded to: SVG Repo, www.svgrepo.com, Generator: SVG Repo Mixer Tools -->
<!DOCTYPE svg PUBLIC "-//W3C//DTD SVG 1.1//EN" "http://www.w3.org/Graphics/SVG/1.1/DTD/svg11.dtd">
<svg fill="#000000" version="1.1" id="Capa_1" xmlns="http://www.w3.org/2000/svg" xmlns:xlink="http://www.w3.org/1999/xlink" 
	 width="800px" height="800px" viewBox="0 0 50 50" xml:space="preserve">
<g>
	<path d="M24.375,26.566c1.592,2.757,7.353,2.41,12.867-0.771c5.513-3.185,8.692-8.002,7.102-10.758
		c-1.201-2.083-6.756-5.807-11.779-6.138c-0.014-0.314-0.071-0.621-0.229-0.892c-0.208-0.359-0.646-0.832-1.213-1.312
		C30.99,5.964,30.8,5.347,30.594,4.991c-0.675-1.17-2.529-1.403-4.427-0.678c-0.063-0.134-0.149-0.259-0.267-0.363
		c-4.333-3.964-9.642-5.02-14.202-2.825C7.461,3.163,4.941,7.679,5.275,12.632c0.349,5.143,6.714,12.276,11.83,18.007
		c2.657,2.973,5.963,6.678,6.006,7.703v5.311c-7.098,0.334-12.681,3.646-12.681,5.154c0,1.592,27.668,1.592,27.668,0
		c0-1.512-5.584-4.82-12.684-5.154v-5.311c0-1.773-2.261-4.389-6.592-9.238c-4.62-5.18-10.953-12.271-11.246-16.629
		c-0.274-4.065,1.688-7.619,5.122-9.271c3.612-1.742,7.873-0.875,11.446,2.287c-1.553,1.275-2.265,2.982-1.593,4.142
		c0.207,0.361,0.644,0.832,1.211,1.313c0.132,0.729,0.322,1.347,0.53,1.705c0.156,0.27,0.39,0.476,0.659,0.646
		C22.725,17.813,23.173,24.485,24.375,26.566z M32.055,16.808c4.411-2.544,9.02-2.825,10.293-0.615
		c1.273,2.206-1.271,6.056-5.682,8.604c-4.411,2.547-9.019,2.826-10.292,0.619C25.1,23.207,27.645,19.356,32.055,16.808z
		 M30.348,22.25c-0.713-1.234,0.133-3.055,1.887-4.068c1.757-1.013,3.754-0.834,4.468,0.4c0.713,1.233-0.134,3.055-1.888,4.067
		C33.059,23.662,31.061,23.483,30.348,22.25z"/>
</g>
</svg>